<mxfile host="app.diagrams.net" agent="Mozilla/5.0 (Windows NT 10.0; Win64; x64) AppleWebKit/537.36 (KHTML, like Gecko) Chrome/130.0.0.0 Safari/537.36" version="24.8.6">
  <diagram id="C5RBs43oDa-KdzZeNtuy" name="Page-1">
    <mxGraphModel dx="638" dy="279" grid="0" gridSize="10" guides="1" tooltips="1" connect="1" arrows="1" fold="1" page="1" pageScale="1" pageWidth="1100" pageHeight="1700" background="#ffffff" math="0" shadow="0">
      <root>
        <mxCell id="WIyWlLk6GJQsqaUBKTNV-0" />
        <mxCell id="WIyWlLk6GJQsqaUBKTNV-1" parent="WIyWlLk6GJQsqaUBKTNV-0" />
        <mxCell id="zkfFHV4jXpPFQw0GAbJ--26" value="talks to" style="endArrow=open;shadow=0;strokeWidth=1;rounded=0;curved=0;endFill=1;edgeStyle=elbowEdgeStyle;elbow=vertical;entryX=0;entryY=0.5;entryDx=0;entryDy=0;exitX=1;exitY=0.5;exitDx=0;exitDy=0;" parent="WIyWlLk6GJQsqaUBKTNV-1" source="zkfFHV4jXpPFQw0GAbJ--3" target="zkfFHV4jXpPFQw0GAbJ--20" edge="1">
          <mxGeometry x="-0.0017" relative="1" as="geometry">
            <mxPoint x="526" y="940.1509433962265" as="sourcePoint" />
            <mxPoint x="606" y="940" as="targetPoint" />
            <mxPoint as="offset" />
          </mxGeometry>
        </mxCell>
        <mxCell id="zkfFHV4jXpPFQw0GAbJ--27" value="1*" style="resizable=0;align=left;verticalAlign=bottom;labelBackgroundColor=none;fontSize=12;" parent="zkfFHV4jXpPFQw0GAbJ--26" connectable="0" vertex="1">
          <mxGeometry x="-1" relative="1" as="geometry">
            <mxPoint y="1" as="offset" />
          </mxGeometry>
        </mxCell>
        <mxCell id="zkfFHV4jXpPFQw0GAbJ--28" value="1" style="resizable=0;align=right;verticalAlign=bottom;labelBackgroundColor=none;fontSize=12;" parent="zkfFHV4jXpPFQw0GAbJ--26" connectable="0" vertex="1">
          <mxGeometry x="1" relative="1" as="geometry">
            <mxPoint x="-7" y="2" as="offset" />
          </mxGeometry>
        </mxCell>
        <mxCell id="yhLwDngZFzW4GkKBRwZi-78" value="interacts with" style="edgeStyle=orthogonalEdgeStyle;rounded=0;orthogonalLoop=1;jettySize=auto;html=1;exitX=0.25;exitY=0;exitDx=0;exitDy=0;entryX=0;entryY=0.5;entryDx=0;entryDy=0;" parent="WIyWlLk6GJQsqaUBKTNV-1" source="zkfFHV4jXpPFQw0GAbJ--0" target="Fs_27z0oELzL2XnIM3CG-0" edge="1">
          <mxGeometry x="0.5645" relative="1" as="geometry">
            <mxPoint as="offset" />
          </mxGeometry>
        </mxCell>
        <mxCell id="zkfFHV4jXpPFQw0GAbJ--6" value="ED Manager" style="swimlane;fontStyle=0;align=center;verticalAlign=top;childLayout=stackLayout;horizontal=1;startSize=26;horizontalStack=0;resizeParent=1;resizeLast=0;collapsible=1;marginBottom=0;rounded=0;shadow=0;strokeWidth=1;" parent="WIyWlLk6GJQsqaUBKTNV-1" vertex="1">
          <mxGeometry x="221" y="661" width="160" height="268" as="geometry">
            <mxRectangle x="130" y="380" width="160" height="26" as="alternateBounds" />
          </mxGeometry>
        </mxCell>
        <mxCell id="yhLwDngZFzW4GkKBRwZi-48" value="+ Name: String" style="text;align=left;verticalAlign=top;spacingLeft=4;spacingRight=4;overflow=hidden;rotatable=0;points=[[0,0.5],[1,0.5]];portConstraint=eastwest;" parent="zkfFHV4jXpPFQw0GAbJ--6" vertex="1">
          <mxGeometry y="26" width="160" height="26" as="geometry" />
        </mxCell>
        <mxCell id="yhLwDngZFzW4GkKBRwZi-50" value="# employeeNumber: Int" style="text;align=left;verticalAlign=top;spacingLeft=4;spacingRight=4;overflow=hidden;rotatable=0;points=[[0,0.5],[1,0.5]];portConstraint=eastwest;rounded=0;shadow=0;html=0;" parent="zkfFHV4jXpPFQw0GAbJ--6" vertex="1">
          <mxGeometry y="52" width="160" height="26" as="geometry" />
        </mxCell>
        <mxCell id="tBo-wQRC3LRxtT-xVERm-1" value="# emailAddress: String" style="text;align=left;verticalAlign=top;spacingLeft=4;spacingRight=4;overflow=hidden;rotatable=0;points=[[0,0.5],[1,0.5]];portConstraint=eastwest;rounded=0;shadow=0;html=0;" parent="zkfFHV4jXpPFQw0GAbJ--6" vertex="1">
          <mxGeometry y="78" width="160" height="26" as="geometry" />
        </mxCell>
        <mxCell id="yhLwDngZFzW4GkKBRwZi-49" value="# phoneNumber: String" style="text;align=left;verticalAlign=top;spacingLeft=4;spacingRight=4;overflow=hidden;rotatable=0;points=[[0,0.5],[1,0.5]];portConstraint=eastwest;rounded=0;shadow=0;html=0;" parent="zkfFHV4jXpPFQw0GAbJ--6" vertex="1">
          <mxGeometry y="104" width="160" height="26" as="geometry" />
        </mxCell>
        <mxCell id="zkfFHV4jXpPFQw0GAbJ--9" value="" style="line;html=1;strokeWidth=1;align=left;verticalAlign=middle;spacingTop=-1;spacingLeft=3;spacingRight=3;rotatable=0;labelPosition=right;points=[];portConstraint=eastwest;" parent="zkfFHV4jXpPFQw0GAbJ--6" vertex="1">
          <mxGeometry y="130" width="160" height="8" as="geometry" />
        </mxCell>
        <mxCell id="zkfFHV4jXpPFQw0GAbJ--11" value="adjustEDWaitlist()&#xa;" style="text;align=left;verticalAlign=top;spacingLeft=4;spacingRight=4;overflow=hidden;rotatable=0;points=[[0,0.5],[1,0.5]];portConstraint=eastwest;" parent="zkfFHV4jXpPFQw0GAbJ--6" vertex="1">
          <mxGeometry y="138" width="160" height="26" as="geometry" />
        </mxCell>
        <mxCell id="yhLwDngZFzW4GkKBRwZi-51" value="viewEDStatistics()&#xa;" style="text;align=left;verticalAlign=top;spacingLeft=4;spacingRight=4;overflow=hidden;rotatable=0;points=[[0,0.5],[1,0.5]];portConstraint=eastwest;" parent="zkfFHV4jXpPFQw0GAbJ--6" vertex="1">
          <mxGeometry y="164" width="160" height="26" as="geometry" />
        </mxCell>
        <mxCell id="yhLwDngZFzW4GkKBRwZi-55" value="reorganizeAppointments()" style="text;align=left;verticalAlign=top;spacingLeft=4;spacingRight=4;overflow=hidden;rotatable=0;points=[[0,0.5],[1,0.5]];portConstraint=eastwest;" parent="zkfFHV4jXpPFQw0GAbJ--6" vertex="1">
          <mxGeometry y="190" width="160" height="26" as="geometry" />
        </mxCell>
        <mxCell id="yhLwDngZFzW4GkKBRwZi-56" value="toggleWaitRoomCapacity()" style="text;align=left;verticalAlign=top;spacingLeft=4;spacingRight=4;overflow=hidden;rotatable=0;points=[[0,0.5],[1,0.5]];portConstraint=eastwest;" parent="zkfFHV4jXpPFQw0GAbJ--6" vertex="1">
          <mxGeometry y="216" width="160" height="26" as="geometry" />
        </mxCell>
        <mxCell id="puMFfP5qI0AETWPIXDAu-53" value="..." style="text;align=left;verticalAlign=top;spacingLeft=4;spacingRight=4;overflow=hidden;rotatable=0;points=[[0,0.5],[1,0.5]];portConstraint=eastwest;" vertex="1" parent="zkfFHV4jXpPFQw0GAbJ--6">
          <mxGeometry y="242" width="160" height="26" as="geometry" />
        </mxCell>
        <mxCell id="puMFfP5qI0AETWPIXDAu-64" style="edgeStyle=orthogonalEdgeStyle;rounded=0;orthogonalLoop=1;jettySize=auto;html=1;entryX=0.5;entryY=1;entryDx=0;entryDy=0;" edge="1" parent="WIyWlLk6GJQsqaUBKTNV-1" source="zkfFHV4jXpPFQw0GAbJ--17" target="yhLwDngZFzW4GkKBRwZi-30">
          <mxGeometry relative="1" as="geometry">
            <mxPoint x="731" y="832" as="targetPoint" />
            <Array as="points">
              <mxPoint x="763" y="871" />
              <mxPoint x="763" y="871" />
            </Array>
          </mxGeometry>
        </mxCell>
        <mxCell id="puMFfP5qI0AETWPIXDAu-65" value="1" style="edgeLabel;html=1;align=center;verticalAlign=middle;resizable=0;points=[];" vertex="1" connectable="0" parent="puMFfP5qI0AETWPIXDAu-64">
          <mxGeometry x="0.7987" relative="1" as="geometry">
            <mxPoint x="4" y="8" as="offset" />
          </mxGeometry>
        </mxCell>
        <mxCell id="puMFfP5qI0AETWPIXDAu-66" value="interacts&lt;div&gt;with&lt;/div&gt;" style="edgeLabel;html=1;align=center;verticalAlign=middle;resizable=0;points=[];" vertex="1" connectable="0" parent="puMFfP5qI0AETWPIXDAu-64">
          <mxGeometry x="0.1288" y="1" relative="1" as="geometry">
            <mxPoint y="4" as="offset" />
          </mxGeometry>
        </mxCell>
        <mxCell id="zkfFHV4jXpPFQw0GAbJ--17" value="Hotline Nurse" style="swimlane;fontStyle=0;align=center;verticalAlign=top;childLayout=stackLayout;horizontal=1;startSize=26;horizontalStack=0;resizeParent=1;resizeLast=0;collapsible=1;marginBottom=0;rounded=0;shadow=0;strokeWidth=1;" parent="WIyWlLk6GJQsqaUBKTNV-1" vertex="1">
          <mxGeometry x="719" y="910" width="160" height="268" as="geometry">
            <mxRectangle x="550" y="140" width="160" height="26" as="alternateBounds" />
          </mxGeometry>
        </mxCell>
        <mxCell id="zkfFHV4jXpPFQw0GAbJ--18" value="+ Name: String" style="text;align=left;verticalAlign=top;spacingLeft=4;spacingRight=4;overflow=hidden;rotatable=0;points=[[0,0.5],[1,0.5]];portConstraint=eastwest;" parent="zkfFHV4jXpPFQw0GAbJ--17" vertex="1">
          <mxGeometry y="26" width="160" height="26" as="geometry" />
        </mxCell>
        <mxCell id="zkfFHV4jXpPFQw0GAbJ--19" value="# phoneNumber: String" style="text;align=left;verticalAlign=top;spacingLeft=4;spacingRight=4;overflow=hidden;rotatable=0;points=[[0,0.5],[1,0.5]];portConstraint=eastwest;rounded=0;shadow=0;html=0;" parent="zkfFHV4jXpPFQw0GAbJ--17" vertex="1">
          <mxGeometry y="52" width="160" height="26" as="geometry" />
        </mxCell>
        <mxCell id="zkfFHV4jXpPFQw0GAbJ--20" value="# employeeNumber: Int" style="text;align=left;verticalAlign=top;spacingLeft=4;spacingRight=4;overflow=hidden;rotatable=0;points=[[0,0.5],[1,0.5]];portConstraint=eastwest;rounded=0;shadow=0;html=0;" parent="zkfFHV4jXpPFQw0GAbJ--17" vertex="1">
          <mxGeometry y="78" width="160" height="26" as="geometry" />
        </mxCell>
        <mxCell id="zkfFHV4jXpPFQw0GAbJ--23" value="" style="line;html=1;strokeWidth=1;align=left;verticalAlign=middle;spacingTop=-1;spacingLeft=3;spacingRight=3;rotatable=0;labelPosition=right;points=[];portConstraint=eastwest;" parent="zkfFHV4jXpPFQw0GAbJ--17" vertex="1">
          <mxGeometry y="104" width="160" height="8" as="geometry" />
        </mxCell>
        <mxCell id="zkfFHV4jXpPFQw0GAbJ--24" value="viewRespondPatientCall()" style="text;align=left;verticalAlign=top;spacingLeft=4;spacingRight=4;overflow=hidden;rotatable=0;points=[[0,0.5],[1,0.5]];portConstraint=eastwest;" parent="zkfFHV4jXpPFQw0GAbJ--17" vertex="1">
          <mxGeometry y="112" width="160" height="26" as="geometry" />
        </mxCell>
        <mxCell id="zkfFHV4jXpPFQw0GAbJ--25" value="viewSummaryPatientCall()" style="text;align=left;verticalAlign=top;spacingLeft=4;spacingRight=4;overflow=hidden;rotatable=0;points=[[0,0.5],[1,0.5]];portConstraint=eastwest;" parent="zkfFHV4jXpPFQw0GAbJ--17" vertex="1">
          <mxGeometry y="138" width="160" height="26" as="geometry" />
        </mxCell>
        <mxCell id="yhLwDngZFzW4GkKBRwZi-18" value="autoLogPatientCall()" style="text;align=left;verticalAlign=top;spacingLeft=4;spacingRight=4;overflow=hidden;rotatable=0;points=[[0,0.5],[1,0.5]];portConstraint=eastwest;" parent="zkfFHV4jXpPFQw0GAbJ--17" vertex="1">
          <mxGeometry y="164" width="160" height="26" as="geometry" />
        </mxCell>
        <mxCell id="yhLwDngZFzW4GkKBRwZi-19" value="sendPatientCallTranscript()" style="text;align=left;verticalAlign=top;spacingLeft=4;spacingRight=4;overflow=hidden;rotatable=0;points=[[0,0.5],[1,0.5]];portConstraint=eastwest;" parent="zkfFHV4jXpPFQw0GAbJ--17" vertex="1">
          <mxGeometry y="190" width="160" height="26" as="geometry" />
        </mxCell>
        <mxCell id="yhLwDngZFzW4GkKBRwZi-20" value="directPatientAfterCall()" style="text;align=left;verticalAlign=top;spacingLeft=4;spacingRight=4;overflow=hidden;rotatable=0;points=[[0,0.5],[1,0.5]];portConstraint=eastwest;" parent="zkfFHV4jXpPFQw0GAbJ--17" vertex="1">
          <mxGeometry y="216" width="160" height="26" as="geometry" />
        </mxCell>
        <mxCell id="puMFfP5qI0AETWPIXDAu-56" value="..." style="text;align=left;verticalAlign=top;spacingLeft=4;spacingRight=4;overflow=hidden;rotatable=0;points=[[0,0.5],[1,0.5]];portConstraint=eastwest;" vertex="1" parent="zkfFHV4jXpPFQw0GAbJ--17">
          <mxGeometry y="242" width="160" height="26" as="geometry" />
        </mxCell>
        <mxCell id="yhLwDngZFzW4GkKBRwZi-66" value="interacts with" style="edgeStyle=orthogonalEdgeStyle;rounded=0;orthogonalLoop=1;jettySize=auto;html=1;entryX=0;entryY=0.5;entryDx=0;entryDy=0;" parent="WIyWlLk6GJQsqaUBKTNV-1" target="yhLwDngZFzW4GkKBRwZi-32" edge="1">
          <mxGeometry x="0.3889" relative="1" as="geometry">
            <mxPoint x="146" y="1276" as="sourcePoint" />
            <mxPoint as="offset" />
          </mxGeometry>
        </mxCell>
        <mxCell id="yhLwDngZFzW4GkKBRwZi-91" value="1*" style="text;strokeColor=none;align=center;fillColor=none;html=1;verticalAlign=middle;whiteSpace=wrap;rounded=0;" parent="WIyWlLk6GJQsqaUBKTNV-1" vertex="1">
          <mxGeometry x="727" y="888" width="60" height="30" as="geometry" />
        </mxCell>
        <mxCell id="yhLwDngZFzW4GkKBRwZi-95" value="manages" style="edgeStyle=orthogonalEdgeStyle;rounded=0;orthogonalLoop=1;jettySize=auto;html=1;exitX=1;exitY=0.5;exitDx=0;exitDy=0;entryX=0;entryY=0.5;entryDx=0;entryDy=0;" parent="WIyWlLk6GJQsqaUBKTNV-1" source="yhLwDngZFzW4GkKBRwZi-56" target="zkfFHV4jXpPFQw0GAbJ--3" edge="1">
          <mxGeometry relative="1" as="geometry" />
        </mxCell>
        <mxCell id="yhLwDngZFzW4GkKBRwZi-97" value="1*" style="text;strokeColor=none;align=center;fillColor=none;html=1;verticalAlign=middle;whiteSpace=wrap;rounded=0;" parent="WIyWlLk6GJQsqaUBKTNV-1" vertex="1">
          <mxGeometry x="360" y="678" width="60" height="30" as="geometry" />
        </mxCell>
        <mxCell id="yhLwDngZFzW4GkKBRwZi-100" value="1" style="text;strokeColor=none;align=center;fillColor=none;html=1;verticalAlign=middle;whiteSpace=wrap;rounded=0;" parent="WIyWlLk6GJQsqaUBKTNV-1" vertex="1">
          <mxGeometry x="357" y="865" width="60" height="30" as="geometry" />
        </mxCell>
        <mxCell id="RBmCdyqVR_5jU8e3-aPP-4" value="" style="rounded=0;whiteSpace=wrap;html=1;strokeColor=none;" parent="WIyWlLk6GJQsqaUBKTNV-1" vertex="1">
          <mxGeometry x="108" y="1373" width="120" height="60" as="geometry" />
        </mxCell>
        <mxCell id="puMFfP5qI0AETWPIXDAu-23" style="edgeStyle=orthogonalEdgeStyle;rounded=0;orthogonalLoop=1;jettySize=auto;html=1;entryX=0.5;entryY=1;entryDx=0;entryDy=0;" edge="1" parent="WIyWlLk6GJQsqaUBKTNV-1" source="puMFfP5qI0AETWPIXDAu-10" target="zkfFHV4jXpPFQw0GAbJ--0">
          <mxGeometry relative="1" as="geometry">
            <Array as="points">
              <mxPoint x="419" y="1284" />
              <mxPoint x="538" y="1284" />
            </Array>
          </mxGeometry>
        </mxCell>
        <mxCell id="puMFfP5qI0AETWPIXDAu-29" value="handles" style="edgeLabel;html=1;align=center;verticalAlign=middle;resizable=0;points=[];" vertex="1" connectable="0" parent="puMFfP5qI0AETWPIXDAu-23">
          <mxGeometry x="-0.3537" y="2" relative="1" as="geometry">
            <mxPoint x="36" y="1" as="offset" />
          </mxGeometry>
        </mxCell>
        <mxCell id="puMFfP5qI0AETWPIXDAu-10" value="ResponsibiltyChain.TriageHandler" style="swimlane;fontStyle=0;align=center;verticalAlign=top;childLayout=stackLayout;horizontal=1;startSize=26;horizontalStack=0;resizeParent=1;resizeLast=0;collapsible=1;marginBottom=0;rounded=0;shadow=0;strokeWidth=1;" vertex="1" parent="WIyWlLk6GJQsqaUBKTNV-1">
          <mxGeometry x="396" y="1310" width="220" height="112" as="geometry">
            <mxRectangle x="550" y="140" width="160" height="26" as="alternateBounds" />
          </mxGeometry>
        </mxCell>
        <mxCell id="puMFfP5qI0AETWPIXDAu-11" value="# nextHandler: TriageHandler" style="text;align=left;verticalAlign=top;spacingLeft=4;spacingRight=4;overflow=hidden;rotatable=0;points=[[0,0.5],[1,0.5]];portConstraint=eastwest;rounded=0;shadow=0;html=0;" vertex="1" parent="puMFfP5qI0AETWPIXDAu-10">
          <mxGeometry y="26" width="220" height="26" as="geometry" />
        </mxCell>
        <mxCell id="puMFfP5qI0AETWPIXDAu-15" value="" style="line;html=1;strokeWidth=1;align=left;verticalAlign=middle;spacingTop=-1;spacingLeft=3;spacingRight=3;rotatable=0;labelPosition=right;points=[];portConstraint=eastwest;" vertex="1" parent="puMFfP5qI0AETWPIXDAu-10">
          <mxGeometry y="52" width="220" height="8" as="geometry" />
        </mxCell>
        <mxCell id="puMFfP5qI0AETWPIXDAu-16" value="setNextHandler()" style="text;align=left;verticalAlign=top;spacingLeft=4;spacingRight=4;overflow=hidden;rotatable=0;points=[[0,0.5],[1,0.5]];portConstraint=eastwest;" vertex="1" parent="puMFfP5qI0AETWPIXDAu-10">
          <mxGeometry y="60" width="220" height="26" as="geometry" />
        </mxCell>
        <mxCell id="puMFfP5qI0AETWPIXDAu-17" value="handleRequest()" style="text;align=left;verticalAlign=top;spacingLeft=4;spacingRight=4;overflow=hidden;rotatable=0;points=[[0,0.5],[1,0.5]];portConstraint=eastwest;" vertex="1" parent="puMFfP5qI0AETWPIXDAu-10">
          <mxGeometry y="86" width="220" height="26" as="geometry" />
        </mxCell>
        <mxCell id="puMFfP5qI0AETWPIXDAu-20" value="" style="group" vertex="1" connectable="0" parent="WIyWlLk6GJQsqaUBKTNV-1">
          <mxGeometry x="91" y="1252" width="256" height="215" as="geometry" />
        </mxCell>
        <mxCell id="puMFfP5qI0AETWPIXDAu-19" value="" style="group" vertex="1" connectable="0" parent="puMFfP5qI0AETWPIXDAu-20">
          <mxGeometry width="220" height="215" as="geometry" />
        </mxCell>
        <mxCell id="yhLwDngZFzW4GkKBRwZi-0" value="General Practitioner" style="swimlane;fontStyle=0;align=center;verticalAlign=top;childLayout=stackLayout;horizontal=1;startSize=26;horizontalStack=0;resizeParent=1;resizeLast=0;collapsible=1;marginBottom=0;rounded=0;shadow=0;strokeWidth=1;" parent="puMFfP5qI0AETWPIXDAu-19" vertex="1">
          <mxGeometry y="24" width="220" height="216" as="geometry">
            <mxRectangle x="550" y="140" width="160" height="26" as="alternateBounds" />
          </mxGeometry>
        </mxCell>
        <mxCell id="yhLwDngZFzW4GkKBRwZi-25" value="# phoneNumber: String" style="text;align=left;verticalAlign=top;spacingLeft=4;spacingRight=4;overflow=hidden;rotatable=0;points=[[0,0.5],[1,0.5]];portConstraint=eastwest;rounded=0;shadow=0;html=0;" parent="yhLwDngZFzW4GkKBRwZi-0" vertex="1">
          <mxGeometry y="26" width="220" height="26" as="geometry" />
        </mxCell>
        <mxCell id="yhLwDngZFzW4GkKBRwZi-24" value="+ Name: String" style="text;align=left;verticalAlign=top;spacingLeft=4;spacingRight=4;overflow=hidden;rotatable=0;points=[[0,0.5],[1,0.5]];portConstraint=eastwest;" parent="yhLwDngZFzW4GkKBRwZi-0" vertex="1">
          <mxGeometry y="52" width="220" height="26" as="geometry" />
        </mxCell>
        <mxCell id="tBo-wQRC3LRxtT-xVERm-2" value="# emailAddress: String" style="text;align=left;verticalAlign=top;spacingLeft=4;spacingRight=4;overflow=hidden;rotatable=0;points=[[0,0.5],[1,0.5]];portConstraint=eastwest;rounded=0;shadow=0;html=0;" parent="yhLwDngZFzW4GkKBRwZi-0" vertex="1">
          <mxGeometry y="78" width="220" height="26" as="geometry" />
        </mxCell>
        <mxCell id="yhLwDngZFzW4GkKBRwZi-44" value="# employeeNumber: Int" style="text;align=left;verticalAlign=top;spacingLeft=4;spacingRight=4;overflow=hidden;rotatable=0;points=[[0,0.5],[1,0.5]];portConstraint=eastwest;rounded=0;shadow=0;html=0;" parent="yhLwDngZFzW4GkKBRwZi-0" vertex="1">
          <mxGeometry y="104" width="220" height="26" as="geometry" />
        </mxCell>
        <mxCell id="yhLwDngZFzW4GkKBRwZi-6" value="" style="line;html=1;strokeWidth=1;align=left;verticalAlign=middle;spacingTop=-1;spacingLeft=3;spacingRight=3;rotatable=0;labelPosition=right;points=[];portConstraint=eastwest;" parent="yhLwDngZFzW4GkKBRwZi-0" vertex="1">
          <mxGeometry y="130" width="220" height="8" as="geometry" />
        </mxCell>
        <mxCell id="yhLwDngZFzW4GkKBRwZi-8" value="approveMrEDPatientAppointment()" style="text;align=left;verticalAlign=top;spacingLeft=4;spacingRight=4;overflow=hidden;rotatable=0;points=[[0,0.5],[1,0.5]];portConstraint=eastwest;" parent="yhLwDngZFzW4GkKBRwZi-0" vertex="1">
          <mxGeometry y="138" width="220" height="26" as="geometry" />
        </mxCell>
        <mxCell id="yhLwDngZFzW4GkKBRwZi-29" value="overideERPatientSchedule()" style="text;align=left;verticalAlign=top;spacingLeft=4;spacingRight=4;overflow=hidden;rotatable=0;points=[[0,0.5],[1,0.5]];portConstraint=eastwest;" parent="yhLwDngZFzW4GkKBRwZi-0" vertex="1">
          <mxGeometry y="164" width="220" height="26" as="geometry" />
        </mxCell>
        <mxCell id="puMFfP5qI0AETWPIXDAu-54" value="..." style="text;align=left;verticalAlign=top;spacingLeft=4;spacingRight=4;overflow=hidden;rotatable=0;points=[[0,0.5],[1,0.5]];portConstraint=eastwest;" vertex="1" parent="yhLwDngZFzW4GkKBRwZi-0">
          <mxGeometry y="190" width="220" height="26" as="geometry" />
        </mxCell>
        <mxCell id="yhLwDngZFzW4GkKBRwZi-71" value="1*" style="text;strokeColor=none;align=center;fillColor=none;html=1;verticalAlign=middle;whiteSpace=wrap;rounded=0;" parent="puMFfP5qI0AETWPIXDAu-19" vertex="1">
          <mxGeometry x="19" y="2" width="60" height="30" as="geometry" />
        </mxCell>
        <mxCell id="yhLwDngZFzW4GkKBRwZi-76" value="1" style="text;strokeColor=none;align=center;fillColor=none;html=1;verticalAlign=middle;whiteSpace=wrap;rounded=0;" parent="puMFfP5qI0AETWPIXDAu-19" vertex="1">
          <mxGeometry x="85" y="2" width="60" height="30" as="geometry" />
        </mxCell>
        <mxCell id="puMFfP5qI0AETWPIXDAu-150" value="1*" style="text;html=1;align=center;verticalAlign=middle;resizable=0;points=[];autosize=1;strokeColor=none;fillColor=none;" vertex="1" parent="puMFfP5qI0AETWPIXDAu-20">
          <mxGeometry x="212" y="118" width="29" height="26" as="geometry" />
        </mxCell>
        <mxCell id="puMFfP5qI0AETWPIXDAu-22" style="edgeStyle=orthogonalEdgeStyle;rounded=0;orthogonalLoop=1;jettySize=auto;html=1;entryX=0;entryY=0.5;entryDx=0;entryDy=0;" edge="1" parent="WIyWlLk6GJQsqaUBKTNV-1" source="puMFfP5qI0AETWPIXDAu-16" target="yhLwDngZFzW4GkKBRwZi-20">
          <mxGeometry relative="1" as="geometry">
            <Array as="points">
              <mxPoint x="652" y="1383" />
              <mxPoint x="652" y="1139" />
            </Array>
          </mxGeometry>
        </mxCell>
        <mxCell id="puMFfP5qI0AETWPIXDAu-28" value="delegates&lt;div&gt;patient to&lt;/div&gt;" style="edgeLabel;html=1;align=center;verticalAlign=middle;resizable=0;points=[];" vertex="1" connectable="0" parent="puMFfP5qI0AETWPIXDAu-22">
          <mxGeometry x="-0.1539" y="2" relative="1" as="geometry">
            <mxPoint x="28" y="-135" as="offset" />
          </mxGeometry>
        </mxCell>
        <mxCell id="puMFfP5qI0AETWPIXDAu-32" style="edgeStyle=orthogonalEdgeStyle;rounded=0;orthogonalLoop=1;jettySize=auto;html=1;entryX=0;entryY=0.5;entryDx=0;entryDy=0;" edge="1" parent="WIyWlLk6GJQsqaUBKTNV-1" source="yhLwDngZFzW4GkKBRwZi-0" target="yhLwDngZFzW4GkKBRwZi-61">
          <mxGeometry relative="1" as="geometry" />
        </mxCell>
        <mxCell id="puMFfP5qI0AETWPIXDAu-33" value="attends to" style="edgeLabel;html=1;align=center;verticalAlign=middle;resizable=0;points=[];" vertex="1" connectable="0" parent="puMFfP5qI0AETWPIXDAu-32">
          <mxGeometry x="0.0368" relative="1" as="geometry">
            <mxPoint as="offset" />
          </mxGeometry>
        </mxCell>
        <mxCell id="puMFfP5qI0AETWPIXDAu-34" style="rounded=0;orthogonalLoop=1;jettySize=auto;html=1;entryX=1;entryY=0.5;entryDx=0;entryDy=0;" edge="1" parent="WIyWlLk6GJQsqaUBKTNV-1" source="puMFfP5qI0AETWPIXDAu-16" target="yhLwDngZFzW4GkKBRwZi-44">
          <mxGeometry relative="1" as="geometry" />
        </mxCell>
        <mxCell id="puMFfP5qI0AETWPIXDAu-35" value="delegates&lt;div&gt;patient to&lt;/div&gt;" style="edgeLabel;html=1;align=center;verticalAlign=middle;resizable=0;points=[];" vertex="1" connectable="0" parent="puMFfP5qI0AETWPIXDAu-34">
          <mxGeometry x="0.0171" y="-1" relative="1" as="geometry">
            <mxPoint as="offset" />
          </mxGeometry>
        </mxCell>
        <mxCell id="puMFfP5qI0AETWPIXDAu-30" style="edgeStyle=orthogonalEdgeStyle;rounded=0;orthogonalLoop=1;jettySize=auto;html=1;entryX=0.75;entryY=1;entryDx=0;entryDy=0;" edge="1" parent="WIyWlLk6GJQsqaUBKTNV-1" source="puMFfP5qI0AETWPIXDAu-11" target="zkfFHV4jXpPFQw0GAbJ--6">
          <mxGeometry relative="1" as="geometry">
            <mxPoint x="362.22229498785896" y="888.9007411647488" as="targetPoint" />
          </mxGeometry>
        </mxCell>
        <mxCell id="puMFfP5qI0AETWPIXDAu-37" value="delegates&lt;div&gt;patient to&lt;/div&gt;" style="edgeLabel;html=1;align=center;verticalAlign=middle;resizable=0;points=[];" vertex="1" connectable="0" parent="puMFfP5qI0AETWPIXDAu-30">
          <mxGeometry x="-0.8605" y="-4" relative="1" as="geometry">
            <mxPoint x="-17" y="-38" as="offset" />
          </mxGeometry>
        </mxCell>
        <mxCell id="puMFfP5qI0AETWPIXDAu-50" style="edgeStyle=orthogonalEdgeStyle;rounded=0;orthogonalLoop=1;jettySize=auto;html=1;entryX=1;entryY=0.5;entryDx=0;entryDy=0;" edge="1" parent="WIyWlLk6GJQsqaUBKTNV-1" source="puMFfP5qI0AETWPIXDAu-38" target="yhLwDngZFzW4GkKBRwZi-61">
          <mxGeometry relative="1" as="geometry">
            <Array as="points">
              <mxPoint x="667" y="1199" />
            </Array>
          </mxGeometry>
        </mxCell>
        <mxCell id="puMFfP5qI0AETWPIXDAu-51" value="notifies" style="edgeLabel;html=1;align=center;verticalAlign=middle;resizable=0;points=[];" vertex="1" connectable="0" parent="puMFfP5qI0AETWPIXDAu-50">
          <mxGeometry x="0.061" relative="1" as="geometry">
            <mxPoint x="3" y="100" as="offset" />
          </mxGeometry>
        </mxCell>
        <mxCell id="puMFfP5qI0AETWPIXDAu-38" value="ObserverComponents.MrEDNotifier" style="swimlane;fontStyle=0;align=center;verticalAlign=top;childLayout=stackLayout;horizontal=1;startSize=26;horizontalStack=0;resizeParent=1;resizeLast=0;collapsible=1;marginBottom=0;rounded=0;shadow=0;strokeWidth=1;" vertex="1" parent="WIyWlLk6GJQsqaUBKTNV-1">
          <mxGeometry x="568" y="1430" width="210" height="242" as="geometry">
            <mxRectangle x="550" y="140" width="160" height="26" as="alternateBounds" />
          </mxGeometry>
        </mxCell>
        <mxCell id="puMFfP5qI0AETWPIXDAu-39" value="- observers: list&lt;Observer&gt;" style="text;align=left;verticalAlign=top;spacingLeft=4;spacingRight=4;overflow=hidden;rotatable=0;points=[[0,0.5],[1,0.5]];portConstraint=eastwest;rounded=0;shadow=0;html=0;" vertex="1" parent="puMFfP5qI0AETWPIXDAu-38">
          <mxGeometry y="26" width="210" height="26" as="geometry" />
        </mxCell>
        <mxCell id="puMFfP5qI0AETWPIXDAu-40" value="- state: String" style="text;align=left;verticalAlign=top;spacingLeft=4;spacingRight=4;overflow=hidden;rotatable=0;points=[[0,0.5],[1,0.5]];portConstraint=eastwest;rounded=0;shadow=0;html=0;" vertex="1" parent="puMFfP5qI0AETWPIXDAu-38">
          <mxGeometry y="52" width="210" height="26" as="geometry" />
        </mxCell>
        <mxCell id="puMFfP5qI0AETWPIXDAu-43" value="" style="line;html=1;strokeWidth=1;align=left;verticalAlign=middle;spacingTop=-1;spacingLeft=3;spacingRight=3;rotatable=0;labelPosition=right;points=[];portConstraint=eastwest;" vertex="1" parent="puMFfP5qI0AETWPIXDAu-38">
          <mxGeometry y="78" width="210" height="8" as="geometry" />
        </mxCell>
        <mxCell id="puMFfP5qI0AETWPIXDAu-44" value="setState()" style="text;align=left;verticalAlign=top;spacingLeft=4;spacingRight=4;overflow=hidden;rotatable=0;points=[[0,0.5],[1,0.5]];portConstraint=eastwest;" vertex="1" parent="puMFfP5qI0AETWPIXDAu-38">
          <mxGeometry y="86" width="210" height="26" as="geometry" />
        </mxCell>
        <mxCell id="puMFfP5qI0AETWPIXDAu-45" value="getState()" style="text;align=left;verticalAlign=top;spacingLeft=4;spacingRight=4;overflow=hidden;rotatable=0;points=[[0,0.5],[1,0.5]];portConstraint=eastwest;" vertex="1" parent="puMFfP5qI0AETWPIXDAu-38">
          <mxGeometry y="112" width="210" height="26" as="geometry" />
        </mxCell>
        <mxCell id="puMFfP5qI0AETWPIXDAu-46" value="attach()" style="text;align=left;verticalAlign=top;spacingLeft=4;spacingRight=4;overflow=hidden;rotatable=0;points=[[0,0.5],[1,0.5]];portConstraint=eastwest;rounded=0;shadow=0;html=0;" vertex="1" parent="puMFfP5qI0AETWPIXDAu-38">
          <mxGeometry y="138" width="210" height="26" as="geometry" />
        </mxCell>
        <mxCell id="puMFfP5qI0AETWPIXDAu-47" value="attachAll()" style="text;align=left;verticalAlign=top;spacingLeft=4;spacingRight=4;overflow=hidden;rotatable=0;points=[[0,0.5],[1,0.5]];portConstraint=eastwest;rounded=0;shadow=0;html=0;" vertex="1" parent="puMFfP5qI0AETWPIXDAu-38">
          <mxGeometry y="164" width="210" height="26" as="geometry" />
        </mxCell>
        <mxCell id="puMFfP5qI0AETWPIXDAu-48" value="detach()" style="text;align=left;verticalAlign=top;spacingLeft=4;spacingRight=4;overflow=hidden;rotatable=0;points=[[0,0.5],[1,0.5]];portConstraint=eastwest;rounded=0;shadow=0;html=0;" vertex="1" parent="puMFfP5qI0AETWPIXDAu-38">
          <mxGeometry y="190" width="210" height="26" as="geometry" />
        </mxCell>
        <mxCell id="puMFfP5qI0AETWPIXDAu-49" value="notifyObservers()" style="text;align=left;verticalAlign=top;spacingLeft=4;spacingRight=4;overflow=hidden;rotatable=0;points=[[0,0.5],[1,0.5]];portConstraint=eastwest;rounded=0;shadow=0;html=0;" vertex="1" parent="puMFfP5qI0AETWPIXDAu-38">
          <mxGeometry y="216" width="210" height="26" as="geometry" />
        </mxCell>
        <mxCell id="puMFfP5qI0AETWPIXDAu-62" style="edgeStyle=orthogonalEdgeStyle;rounded=0;orthogonalLoop=1;jettySize=auto;html=1;entryX=0.502;entryY=0.989;entryDx=0;entryDy=0;entryPerimeter=0;" edge="1" parent="WIyWlLk6GJQsqaUBKTNV-1" source="puMFfP5qI0AETWPIXDAu-57" target="puMFfP5qI0AETWPIXDAu-56">
          <mxGeometry relative="1" as="geometry">
            <Array as="points">
              <mxPoint x="799" y="1209" />
              <mxPoint x="799" y="1209" />
            </Array>
          </mxGeometry>
        </mxCell>
        <mxCell id="puMFfP5qI0AETWPIXDAu-63" value="decorates" style="edgeLabel;html=1;align=center;verticalAlign=middle;resizable=0;points=[];" vertex="1" connectable="0" parent="puMFfP5qI0AETWPIXDAu-62">
          <mxGeometry x="-0.1212" relative="1" as="geometry">
            <mxPoint as="offset" />
          </mxGeometry>
        </mxCell>
        <mxCell id="puMFfP5qI0AETWPIXDAu-57" value="DecoratorComponents.NurseDecorator" style="swimlane;fontStyle=0;align=center;verticalAlign=top;childLayout=stackLayout;horizontal=1;startSize=26;horizontalStack=0;resizeParent=1;resizeLast=0;collapsible=1;marginBottom=0;rounded=0;shadow=0;strokeWidth=1;" vertex="1" parent="WIyWlLk6GJQsqaUBKTNV-1">
          <mxGeometry x="676" y="1240" width="220" height="86" as="geometry">
            <mxRectangle x="550" y="140" width="160" height="26" as="alternateBounds" />
          </mxGeometry>
        </mxCell>
        <mxCell id="puMFfP5qI0AETWPIXDAu-58" value="# decoratedNurse: Nurse" style="text;align=left;verticalAlign=top;spacingLeft=4;spacingRight=4;overflow=hidden;rotatable=0;points=[[0,0.5],[1,0.5]];portConstraint=eastwest;rounded=0;shadow=0;html=0;" vertex="1" parent="puMFfP5qI0AETWPIXDAu-57">
          <mxGeometry y="26" width="220" height="26" as="geometry" />
        </mxCell>
        <mxCell id="puMFfP5qI0AETWPIXDAu-59" value="" style="line;html=1;strokeWidth=1;align=left;verticalAlign=middle;spacingTop=-1;spacingLeft=3;spacingRight=3;rotatable=0;labelPosition=right;points=[];portConstraint=eastwest;" vertex="1" parent="puMFfP5qI0AETWPIXDAu-57">
          <mxGeometry y="52" width="220" height="8" as="geometry" />
        </mxCell>
        <mxCell id="puMFfP5qI0AETWPIXDAu-60" value="performDuties()" style="text;align=left;verticalAlign=top;spacingLeft=4;spacingRight=4;overflow=hidden;rotatable=0;points=[[0,0.5],[1,0.5]];portConstraint=eastwest;" vertex="1" parent="puMFfP5qI0AETWPIXDAu-57">
          <mxGeometry y="60" width="220" height="26" as="geometry" />
        </mxCell>
        <mxCell id="puMFfP5qI0AETWPIXDAu-67" value="" style="group" vertex="1" connectable="0" parent="WIyWlLk6GJQsqaUBKTNV-1">
          <mxGeometry x="613" y="610" width="255" height="216" as="geometry" />
        </mxCell>
        <mxCell id="yhLwDngZFzW4GkKBRwZi-30" value="Mr. ED Main" style="swimlane;fontStyle=0;align=center;verticalAlign=top;childLayout=stackLayout;horizontal=1;startSize=26;horizontalStack=0;resizeParent=1;resizeLast=0;collapsible=1;marginBottom=0;rounded=0;shadow=0;strokeWidth=1;" parent="puMFfP5qI0AETWPIXDAu-67" vertex="1">
          <mxGeometry x="45" width="210" height="216" as="geometry">
            <mxRectangle x="550" y="140" width="160" height="26" as="alternateBounds" />
          </mxGeometry>
        </mxCell>
        <mxCell id="yhLwDngZFzW4GkKBRwZi-32" value="# Waitlists: Array " style="text;align=left;verticalAlign=top;spacingLeft=4;spacingRight=4;overflow=hidden;rotatable=0;points=[[0,0.5],[1,0.5]];portConstraint=eastwest;rounded=0;shadow=0;html=0;" parent="yhLwDngZFzW4GkKBRwZi-30" vertex="1">
          <mxGeometry y="26" width="210" height="26" as="geometry" />
        </mxCell>
        <mxCell id="yhLwDngZFzW4GkKBRwZi-58" value="# AverageWaitLengths: Array " style="text;align=left;verticalAlign=top;spacingLeft=4;spacingRight=4;overflow=hidden;rotatable=0;points=[[0,0.5],[1,0.5]];portConstraint=eastwest;rounded=0;shadow=0;html=0;" parent="yhLwDngZFzW4GkKBRwZi-30" vertex="1">
          <mxGeometry y="52" width="210" height="26" as="geometry" />
        </mxCell>
        <mxCell id="yhLwDngZFzW4GkKBRwZi-86" value="# HospitalEmployees: Array " style="text;align=left;verticalAlign=top;spacingLeft=4;spacingRight=4;overflow=hidden;rotatable=0;points=[[0,0.5],[1,0.5]];portConstraint=eastwest;rounded=0;shadow=0;html=0;" parent="yhLwDngZFzW4GkKBRwZi-30" vertex="1">
          <mxGeometry y="78" width="210" height="26" as="geometry" />
        </mxCell>
        <mxCell id="Fs_27z0oELzL2XnIM3CG-0" value="# Hospitals: Array " style="text;align=left;verticalAlign=top;spacingLeft=4;spacingRight=4;overflow=hidden;rotatable=0;points=[[0,0.5],[1,0.5]];portConstraint=eastwest;rounded=0;shadow=0;html=0;" parent="yhLwDngZFzW4GkKBRwZi-30" vertex="1">
          <mxGeometry y="104" width="210" height="26" as="geometry" />
        </mxCell>
        <mxCell id="yhLwDngZFzW4GkKBRwZi-34" value="" style="line;html=1;strokeWidth=1;align=left;verticalAlign=middle;spacingTop=-1;spacingLeft=3;spacingRight=3;rotatable=0;labelPosition=right;points=[];portConstraint=eastwest;" parent="yhLwDngZFzW4GkKBRwZi-30" vertex="1">
          <mxGeometry y="130" width="210" height="8" as="geometry" />
        </mxCell>
        <mxCell id="yhLwDngZFzW4GkKBRwZi-40" value="schedulePractitionerAppointments()" style="text;align=left;verticalAlign=top;spacingLeft=4;spacingRight=4;overflow=hidden;rotatable=0;points=[[0,0.5],[1,0.5]];portConstraint=eastwest;" parent="yhLwDngZFzW4GkKBRwZi-30" vertex="1">
          <mxGeometry y="138" width="210" height="26" as="geometry" />
        </mxCell>
        <mxCell id="yhLwDngZFzW4GkKBRwZi-53" value="trackEDStatistics()&#xa;" style="text;align=left;verticalAlign=top;spacingLeft=4;spacingRight=4;overflow=hidden;rotatable=0;points=[[0,0.5],[1,0.5]];portConstraint=eastwest;" parent="yhLwDngZFzW4GkKBRwZi-30" vertex="1">
          <mxGeometry y="164" width="210" height="26" as="geometry" />
        </mxCell>
        <mxCell id="puMFfP5qI0AETWPIXDAu-52" value="..." style="text;align=left;verticalAlign=top;spacingLeft=4;spacingRight=4;overflow=hidden;rotatable=0;points=[[0,0.5],[1,0.5]];portConstraint=eastwest;" vertex="1" parent="yhLwDngZFzW4GkKBRwZi-30">
          <mxGeometry y="190" width="210" height="26" as="geometry" />
        </mxCell>
        <mxCell id="yhLwDngZFzW4GkKBRwZi-72" value="1" style="text;strokeColor=none;align=center;fillColor=none;html=1;verticalAlign=middle;whiteSpace=wrap;rounded=0;" parent="puMFfP5qI0AETWPIXDAu-67" vertex="1">
          <mxGeometry y="17" width="60" height="30" as="geometry" />
        </mxCell>
        <mxCell id="yhLwDngZFzW4GkKBRwZi-83" value="1" style="text;strokeColor=none;align=center;fillColor=none;html=1;verticalAlign=middle;whiteSpace=wrap;rounded=0;" parent="puMFfP5qI0AETWPIXDAu-67" vertex="1">
          <mxGeometry x="2" y="97" width="60" height="30" as="geometry" />
        </mxCell>
        <mxCell id="puMFfP5qI0AETWPIXDAu-72" value="1" style="text;strokeColor=none;align=center;fillColor=none;html=1;verticalAlign=middle;whiteSpace=wrap;rounded=0;" vertex="1" parent="puMFfP5qI0AETWPIXDAu-67">
          <mxGeometry x="2" y="67" width="60" height="30" as="geometry" />
        </mxCell>
        <mxCell id="puMFfP5qI0AETWPIXDAu-70" style="edgeStyle=orthogonalEdgeStyle;rounded=0;orthogonalLoop=1;jettySize=auto;html=1;exitX=1;exitY=0.5;exitDx=0;exitDy=0;" edge="1" parent="WIyWlLk6GJQsqaUBKTNV-1" source="yhLwDngZFzW4GkKBRwZi-48" target="yhLwDngZFzW4GkKBRwZi-86">
          <mxGeometry relative="1" as="geometry" />
        </mxCell>
        <mxCell id="puMFfP5qI0AETWPIXDAu-71" value="interacts with" style="edgeLabel;html=1;align=center;verticalAlign=middle;resizable=0;points=[];" vertex="1" connectable="0" parent="puMFfP5qI0AETWPIXDAu-70">
          <mxGeometry x="0.0227" y="2" relative="1" as="geometry">
            <mxPoint as="offset" />
          </mxGeometry>
        </mxCell>
        <mxCell id="puMFfP5qI0AETWPIXDAu-105" style="edgeStyle=orthogonalEdgeStyle;rounded=0;orthogonalLoop=1;jettySize=auto;html=1;entryX=0.25;entryY=0;entryDx=0;entryDy=0;" edge="1" parent="WIyWlLk6GJQsqaUBKTNV-1" source="puMFfP5qI0AETWPIXDAu-73" target="yhLwDngZFzW4GkKBRwZi-30">
          <mxGeometry relative="1" as="geometry">
            <Array as="points">
              <mxPoint x="408" y="576" />
              <mxPoint x="711" y="576" />
            </Array>
          </mxGeometry>
        </mxCell>
        <mxCell id="puMFfP5qI0AETWPIXDAu-106" value="check heartbeat of" style="edgeLabel;html=1;align=center;verticalAlign=middle;resizable=0;points=[];" vertex="1" connectable="0" parent="puMFfP5qI0AETWPIXDAu-105">
          <mxGeometry x="-0.0502" relative="1" as="geometry">
            <mxPoint as="offset" />
          </mxGeometry>
        </mxCell>
        <mxCell id="puMFfP5qI0AETWPIXDAu-73" value="Heartbeat" style="swimlane;fontStyle=0;align=center;verticalAlign=top;childLayout=stackLayout;horizontal=1;startSize=26;horizontalStack=0;resizeParent=1;resizeLast=0;collapsible=1;marginBottom=0;rounded=0;shadow=0;strokeWidth=1;" vertex="1" parent="WIyWlLk6GJQsqaUBKTNV-1">
          <mxGeometry x="298" y="274" width="220" height="216" as="geometry">
            <mxRectangle x="550" y="140" width="160" height="26" as="alternateBounds" />
          </mxGeometry>
        </mxCell>
        <mxCell id="puMFfP5qI0AETWPIXDAu-74" value="- instance: Heartbeat " style="text;align=left;verticalAlign=top;spacingLeft=4;spacingRight=4;overflow=hidden;rotatable=0;points=[[0,0.5],[1,0.5]];portConstraint=eastwest;rounded=0;shadow=0;html=0;" vertex="1" parent="puMFfP5qI0AETWPIXDAu-73">
          <mxGeometry y="26" width="220" height="26" as="geometry" />
        </mxCell>
        <mxCell id="puMFfP5qI0AETWPIXDAu-80" value="- lock: Object" style="text;align=left;verticalAlign=top;spacingLeft=4;spacingRight=4;overflow=hidden;rotatable=0;points=[[0,0.5],[1,0.5]];portConstraint=eastwest;rounded=0;shadow=0;html=0;" vertex="1" parent="puMFfP5qI0AETWPIXDAu-73">
          <mxGeometry y="52" width="220" height="26" as="geometry" />
        </mxCell>
        <mxCell id="puMFfP5qI0AETWPIXDAu-81" value="- interval: long" style="text;align=left;verticalAlign=top;spacingLeft=4;spacingRight=4;overflow=hidden;rotatable=0;points=[[0,0.5],[1,0.5]];portConstraint=eastwest;rounded=0;shadow=0;html=0;" vertex="1" parent="puMFfP5qI0AETWPIXDAu-73">
          <mxGeometry y="78" width="220" height="26" as="geometry" />
        </mxCell>
        <mxCell id="puMFfP5qI0AETWPIXDAu-82" value="- running: boolean" style="text;align=left;verticalAlign=top;spacingLeft=4;spacingRight=4;overflow=hidden;rotatable=0;points=[[0,0.5],[1,0.5]];portConstraint=eastwest;rounded=0;shadow=0;html=0;" vertex="1" parent="puMFfP5qI0AETWPIXDAu-73">
          <mxGeometry y="104" width="220" height="26" as="geometry" />
        </mxCell>
        <mxCell id="puMFfP5qI0AETWPIXDAu-75" value="" style="line;html=1;strokeWidth=1;align=left;verticalAlign=middle;spacingTop=-1;spacingLeft=3;spacingRight=3;rotatable=0;labelPosition=right;points=[];portConstraint=eastwest;" vertex="1" parent="puMFfP5qI0AETWPIXDAu-73">
          <mxGeometry y="130" width="220" height="8" as="geometry" />
        </mxCell>
        <mxCell id="puMFfP5qI0AETWPIXDAu-76" value="getSingletonInstance()" style="text;align=left;verticalAlign=top;spacingLeft=4;spacingRight=4;overflow=hidden;rotatable=0;points=[[0,0.5],[1,0.5]];portConstraint=eastwest;" vertex="1" parent="puMFfP5qI0AETWPIXDAu-73">
          <mxGeometry y="138" width="220" height="26" as="geometry" />
        </mxCell>
        <mxCell id="puMFfP5qI0AETWPIXDAu-77" value="run()" style="text;align=left;verticalAlign=top;spacingLeft=4;spacingRight=4;overflow=hidden;rotatable=0;points=[[0,0.5],[1,0.5]];portConstraint=eastwest;" vertex="1" parent="puMFfP5qI0AETWPIXDAu-73">
          <mxGeometry y="164" width="220" height="26" as="geometry" />
        </mxCell>
        <mxCell id="puMFfP5qI0AETWPIXDAu-78" value="stopHeartbeat()" style="text;align=left;verticalAlign=top;spacingLeft=4;spacingRight=4;overflow=hidden;rotatable=0;points=[[0,0.5],[1,0.5]];portConstraint=eastwest;" vertex="1" parent="puMFfP5qI0AETWPIXDAu-73">
          <mxGeometry y="190" width="220" height="26" as="geometry" />
        </mxCell>
        <mxCell id="puMFfP5qI0AETWPIXDAu-104" style="edgeStyle=orthogonalEdgeStyle;rounded=0;orthogonalLoop=1;jettySize=auto;html=1;" edge="1" parent="WIyWlLk6GJQsqaUBKTNV-1" source="puMFfP5qI0AETWPIXDAu-83" target="yhLwDngZFzW4GkKBRwZi-30">
          <mxGeometry relative="1" as="geometry">
            <Array as="points">
              <mxPoint x="703" y="563" />
              <mxPoint x="763" y="563" />
            </Array>
          </mxGeometry>
        </mxCell>
        <mxCell id="puMFfP5qI0AETWPIXDAu-107" value="backs up" style="edgeLabel;html=1;align=center;verticalAlign=middle;resizable=0;points=[];" vertex="1" connectable="0" parent="puMFfP5qI0AETWPIXDAu-104">
          <mxGeometry x="0.1139" y="2" relative="1" as="geometry">
            <mxPoint x="-9" as="offset" />
          </mxGeometry>
        </mxCell>
        <mxCell id="puMFfP5qI0AETWPIXDAu-83" value="Backup" style="swimlane;fontStyle=0;align=center;verticalAlign=top;childLayout=stackLayout;horizontal=1;startSize=26;horizontalStack=0;resizeParent=1;resizeLast=0;collapsible=1;marginBottom=0;rounded=0;shadow=0;strokeWidth=1;" vertex="1" parent="WIyWlLk6GJQsqaUBKTNV-1">
          <mxGeometry x="536" y="274" width="220" height="242" as="geometry">
            <mxRectangle x="550" y="140" width="160" height="26" as="alternateBounds" />
          </mxGeometry>
        </mxCell>
        <mxCell id="puMFfP5qI0AETWPIXDAu-84" value="- instance: Backup " style="text;align=left;verticalAlign=top;spacingLeft=4;spacingRight=4;overflow=hidden;rotatable=0;points=[[0,0.5],[1,0.5]];portConstraint=eastwest;rounded=0;shadow=0;html=0;" vertex="1" parent="puMFfP5qI0AETWPIXDAu-83">
          <mxGeometry y="26" width="220" height="26" as="geometry" />
        </mxCell>
        <mxCell id="puMFfP5qI0AETWPIXDAu-85" value="- lock: Object" style="text;align=left;verticalAlign=top;spacingLeft=4;spacingRight=4;overflow=hidden;rotatable=0;points=[[0,0.5],[1,0.5]];portConstraint=eastwest;rounded=0;shadow=0;html=0;" vertex="1" parent="puMFfP5qI0AETWPIXDAu-83">
          <mxGeometry y="52" width="220" height="26" as="geometry" />
        </mxCell>
        <mxCell id="puMFfP5qI0AETWPIXDAu-86" value="- sourceFilePath: String" style="text;align=left;verticalAlign=top;spacingLeft=4;spacingRight=4;overflow=hidden;rotatable=0;points=[[0,0.5],[1,0.5]];portConstraint=eastwest;rounded=0;shadow=0;html=0;" vertex="1" parent="puMFfP5qI0AETWPIXDAu-83">
          <mxGeometry y="78" width="220" height="26" as="geometry" />
        </mxCell>
        <mxCell id="puMFfP5qI0AETWPIXDAu-92" value="- backupFilePath: String" style="text;align=left;verticalAlign=top;spacingLeft=4;spacingRight=4;overflow=hidden;rotatable=0;points=[[0,0.5],[1,0.5]];portConstraint=eastwest;rounded=0;shadow=0;html=0;" vertex="1" parent="puMFfP5qI0AETWPIXDAu-83">
          <mxGeometry y="104" width="220" height="26" as="geometry" />
        </mxCell>
        <mxCell id="puMFfP5qI0AETWPIXDAu-87" value="- running: boolean" style="text;align=left;verticalAlign=top;spacingLeft=4;spacingRight=4;overflow=hidden;rotatable=0;points=[[0,0.5],[1,0.5]];portConstraint=eastwest;rounded=0;shadow=0;html=0;" vertex="1" parent="puMFfP5qI0AETWPIXDAu-83">
          <mxGeometry y="130" width="220" height="26" as="geometry" />
        </mxCell>
        <mxCell id="puMFfP5qI0AETWPIXDAu-88" value="" style="line;html=1;strokeWidth=1;align=left;verticalAlign=middle;spacingTop=-1;spacingLeft=3;spacingRight=3;rotatable=0;labelPosition=right;points=[];portConstraint=eastwest;" vertex="1" parent="puMFfP5qI0AETWPIXDAu-83">
          <mxGeometry y="156" width="220" height="8" as="geometry" />
        </mxCell>
        <mxCell id="puMFfP5qI0AETWPIXDAu-89" value="getSingletonInstance()" style="text;align=left;verticalAlign=top;spacingLeft=4;spacingRight=4;overflow=hidden;rotatable=0;points=[[0,0.5],[1,0.5]];portConstraint=eastwest;" vertex="1" parent="puMFfP5qI0AETWPIXDAu-83">
          <mxGeometry y="164" width="220" height="26" as="geometry" />
        </mxCell>
        <mxCell id="puMFfP5qI0AETWPIXDAu-90" value="run()" style="text;align=left;verticalAlign=top;spacingLeft=4;spacingRight=4;overflow=hidden;rotatable=0;points=[[0,0.5],[1,0.5]];portConstraint=eastwest;" vertex="1" parent="puMFfP5qI0AETWPIXDAu-83">
          <mxGeometry y="190" width="220" height="26" as="geometry" />
        </mxCell>
        <mxCell id="puMFfP5qI0AETWPIXDAu-91" value="stopBackup()" style="text;align=left;verticalAlign=top;spacingLeft=4;spacingRight=4;overflow=hidden;rotatable=0;points=[[0,0.5],[1,0.5]];portConstraint=eastwest;" vertex="1" parent="puMFfP5qI0AETWPIXDAu-83">
          <mxGeometry y="216" width="220" height="26" as="geometry" />
        </mxCell>
        <mxCell id="puMFfP5qI0AETWPIXDAu-119" style="edgeStyle=orthogonalEdgeStyle;rounded=0;orthogonalLoop=1;jettySize=auto;html=1;entryX=0.495;entryY=0;entryDx=0;entryDy=0;entryPerimeter=0;" edge="1" parent="WIyWlLk6GJQsqaUBKTNV-1" source="puMFfP5qI0AETWPIXDAu-93" target="puMFfP5qI0AETWPIXDAu-109">
          <mxGeometry relative="1" as="geometry">
            <mxPoint x="899" y="317" as="targetPoint" />
            <Array as="points">
              <mxPoint x="899" y="305" />
            </Array>
          </mxGeometry>
        </mxCell>
        <mxCell id="puMFfP5qI0AETWPIXDAu-120" value="checks" style="edgeLabel;html=1;align=center;verticalAlign=middle;resizable=0;points=[];" vertex="1" connectable="0" parent="puMFfP5qI0AETWPIXDAu-119">
          <mxGeometry x="-0.2064" relative="1" as="geometry">
            <mxPoint y="1" as="offset" />
          </mxGeometry>
        </mxCell>
        <mxCell id="puMFfP5qI0AETWPIXDAu-93" value="SanityCheck" style="swimlane;fontStyle=0;align=center;verticalAlign=top;childLayout=stackLayout;horizontal=1;startSize=26;horizontalStack=0;resizeParent=1;resizeLast=0;collapsible=1;marginBottom=0;rounded=0;shadow=0;strokeWidth=1;" vertex="1" parent="WIyWlLk6GJQsqaUBKTNV-1">
          <mxGeometry x="782" y="28" width="220" height="242" as="geometry">
            <mxRectangle x="550" y="140" width="160" height="26" as="alternateBounds" />
          </mxGeometry>
        </mxCell>
        <mxCell id="puMFfP5qI0AETWPIXDAu-94" value="- instance: SanityCheck" style="text;align=left;verticalAlign=top;spacingLeft=4;spacingRight=4;overflow=hidden;rotatable=0;points=[[0,0.5],[1,0.5]];portConstraint=eastwest;rounded=0;shadow=0;html=0;" vertex="1" parent="puMFfP5qI0AETWPIXDAu-93">
          <mxGeometry y="26" width="220" height="26" as="geometry" />
        </mxCell>
        <mxCell id="puMFfP5qI0AETWPIXDAu-95" value="- lock: Object" style="text;align=left;verticalAlign=top;spacingLeft=4;spacingRight=4;overflow=hidden;rotatable=0;points=[[0,0.5],[1,0.5]];portConstraint=eastwest;rounded=0;shadow=0;html=0;" vertex="1" parent="puMFfP5qI0AETWPIXDAu-93">
          <mxGeometry y="52" width="220" height="26" as="geometry" />
        </mxCell>
        <mxCell id="puMFfP5qI0AETWPIXDAu-96" value="- interval: long" style="text;align=left;verticalAlign=top;spacingLeft=4;spacingRight=4;overflow=hidden;rotatable=0;points=[[0,0.5],[1,0.5]];portConstraint=eastwest;rounded=0;shadow=0;html=0;" vertex="1" parent="puMFfP5qI0AETWPIXDAu-93">
          <mxGeometry y="78" width="220" height="26" as="geometry" />
        </mxCell>
        <mxCell id="puMFfP5qI0AETWPIXDAu-98" value="- running: boolean" style="text;align=left;verticalAlign=top;spacingLeft=4;spacingRight=4;overflow=hidden;rotatable=0;points=[[0,0.5],[1,0.5]];portConstraint=eastwest;rounded=0;shadow=0;html=0;" vertex="1" parent="puMFfP5qI0AETWPIXDAu-93">
          <mxGeometry y="104" width="220" height="26" as="geometry" />
        </mxCell>
        <mxCell id="puMFfP5qI0AETWPIXDAu-97" value="- urlString: String" style="text;align=left;verticalAlign=top;spacingLeft=4;spacingRight=4;overflow=hidden;rotatable=0;points=[[0,0.5],[1,0.5]];portConstraint=eastwest;rounded=0;shadow=0;html=0;" vertex="1" parent="puMFfP5qI0AETWPIXDAu-93">
          <mxGeometry y="130" width="220" height="26" as="geometry" />
        </mxCell>
        <mxCell id="puMFfP5qI0AETWPIXDAu-99" value="" style="line;html=1;strokeWidth=1;align=left;verticalAlign=middle;spacingTop=-1;spacingLeft=3;spacingRight=3;rotatable=0;labelPosition=right;points=[];portConstraint=eastwest;" vertex="1" parent="puMFfP5qI0AETWPIXDAu-93">
          <mxGeometry y="156" width="220" height="8" as="geometry" />
        </mxCell>
        <mxCell id="puMFfP5qI0AETWPIXDAu-100" value="getSingletonInstance()" style="text;align=left;verticalAlign=top;spacingLeft=4;spacingRight=4;overflow=hidden;rotatable=0;points=[[0,0.5],[1,0.5]];portConstraint=eastwest;" vertex="1" parent="puMFfP5qI0AETWPIXDAu-93">
          <mxGeometry y="164" width="220" height="26" as="geometry" />
        </mxCell>
        <mxCell id="puMFfP5qI0AETWPIXDAu-101" value="run()" style="text;align=left;verticalAlign=top;spacingLeft=4;spacingRight=4;overflow=hidden;rotatable=0;points=[[0,0.5],[1,0.5]];portConstraint=eastwest;" vertex="1" parent="puMFfP5qI0AETWPIXDAu-93">
          <mxGeometry y="190" width="220" height="26" as="geometry" />
        </mxCell>
        <mxCell id="puMFfP5qI0AETWPIXDAu-102" value="stopSanityCheck()" style="text;align=left;verticalAlign=top;spacingLeft=4;spacingRight=4;overflow=hidden;rotatable=0;points=[[0,0.5],[1,0.5]];portConstraint=eastwest;" vertex="1" parent="puMFfP5qI0AETWPIXDAu-93">
          <mxGeometry y="216" width="220" height="26" as="geometry" />
        </mxCell>
        <mxCell id="puMFfP5qI0AETWPIXDAu-121" style="edgeStyle=orthogonalEdgeStyle;rounded=0;orthogonalLoop=1;jettySize=auto;html=1;entryX=0.75;entryY=0;entryDx=0;entryDy=0;" edge="1" parent="WIyWlLk6GJQsqaUBKTNV-1" source="puMFfP5qI0AETWPIXDAu-109" target="yhLwDngZFzW4GkKBRwZi-30">
          <mxGeometry relative="1" as="geometry" />
        </mxCell>
        <mxCell id="puMFfP5qI0AETWPIXDAu-122" value="provides&lt;div&gt;info to&lt;/div&gt;" style="edgeLabel;html=1;align=center;verticalAlign=middle;resizable=0;points=[];" vertex="1" connectable="0" parent="puMFfP5qI0AETWPIXDAu-121">
          <mxGeometry x="-0.1602" y="-2" relative="1" as="geometry">
            <mxPoint x="-12" as="offset" />
          </mxGeometry>
        </mxCell>
        <mxCell id="puMFfP5qI0AETWPIXDAu-109" value="HospitalLocalizer" style="swimlane;fontStyle=0;align=center;verticalAlign=top;childLayout=stackLayout;horizontal=1;startSize=26;horizontalStack=0;resizeParent=1;resizeLast=0;collapsible=1;marginBottom=0;rounded=0;shadow=0;strokeWidth=1;" vertex="1" parent="WIyWlLk6GJQsqaUBKTNV-1">
          <mxGeometry x="790" y="321" width="220" height="164" as="geometry">
            <mxRectangle x="550" y="140" width="160" height="26" as="alternateBounds" />
          </mxGeometry>
        </mxCell>
        <mxCell id="puMFfP5qI0AETWPIXDAu-110" value="- userLatitude: String" style="text;align=left;verticalAlign=top;spacingLeft=4;spacingRight=4;overflow=hidden;rotatable=0;points=[[0,0.5],[1,0.5]];portConstraint=eastwest;rounded=0;shadow=0;html=0;" vertex="1" parent="puMFfP5qI0AETWPIXDAu-109">
          <mxGeometry y="26" width="220" height="26" as="geometry" />
        </mxCell>
        <mxCell id="puMFfP5qI0AETWPIXDAu-111" value="- userLongitude: String" style="text;align=left;verticalAlign=top;spacingLeft=4;spacingRight=4;overflow=hidden;rotatable=0;points=[[0,0.5],[1,0.5]];portConstraint=eastwest;rounded=0;shadow=0;html=0;" vertex="1" parent="puMFfP5qI0AETWPIXDAu-109">
          <mxGeometry y="52" width="220" height="26" as="geometry" />
        </mxCell>
        <mxCell id="puMFfP5qI0AETWPIXDAu-114" value="" style="line;html=1;strokeWidth=1;align=left;verticalAlign=middle;spacingTop=-1;spacingLeft=3;spacingRight=3;rotatable=0;labelPosition=right;points=[];portConstraint=eastwest;" vertex="1" parent="puMFfP5qI0AETWPIXDAu-109">
          <mxGeometry y="78" width="220" height="8" as="geometry" />
        </mxCell>
        <mxCell id="puMFfP5qI0AETWPIXDAu-115" value="getUserLatitude()" style="text;align=left;verticalAlign=top;spacingLeft=4;spacingRight=4;overflow=hidden;rotatable=0;points=[[0,0.5],[1,0.5]];portConstraint=eastwest;" vertex="1" parent="puMFfP5qI0AETWPIXDAu-109">
          <mxGeometry y="86" width="220" height="26" as="geometry" />
        </mxCell>
        <mxCell id="puMFfP5qI0AETWPIXDAu-116" value="getUserLongitude()" style="text;align=left;verticalAlign=top;spacingLeft=4;spacingRight=4;overflow=hidden;rotatable=0;points=[[0,0.5],[1,0.5]];portConstraint=eastwest;" vertex="1" parent="puMFfP5qI0AETWPIXDAu-109">
          <mxGeometry y="112" width="220" height="26" as="geometry" />
        </mxCell>
        <mxCell id="puMFfP5qI0AETWPIXDAu-117" value="getDistanceBetweenCoordinates()" style="text;align=left;verticalAlign=top;spacingLeft=4;spacingRight=4;overflow=hidden;rotatable=0;points=[[0,0.5],[1,0.5]];portConstraint=eastwest;" vertex="1" parent="puMFfP5qI0AETWPIXDAu-109">
          <mxGeometry y="138" width="220" height="26" as="geometry" />
        </mxCell>
        <mxCell id="puMFfP5qI0AETWPIXDAu-123" value="1" style="text;html=1;align=center;verticalAlign=middle;resizable=0;points=[];autosize=1;strokeColor=none;fillColor=none;" vertex="1" parent="WIyWlLk6GJQsqaUBKTNV-1">
          <mxGeometry x="389" y="484" width="25" height="26" as="geometry" />
        </mxCell>
        <mxCell id="puMFfP5qI0AETWPIXDAu-124" value="1" style="text;html=1;align=center;verticalAlign=middle;resizable=0;points=[];autosize=1;strokeColor=none;fillColor=none;" vertex="1" parent="WIyWlLk6GJQsqaUBKTNV-1">
          <mxGeometry x="683" y="510" width="25" height="26" as="geometry" />
        </mxCell>
        <mxCell id="puMFfP5qI0AETWPIXDAu-125" value="1" style="text;html=1;align=center;verticalAlign=middle;resizable=0;points=[];autosize=1;strokeColor=none;fillColor=none;" vertex="1" parent="WIyWlLk6GJQsqaUBKTNV-1">
          <mxGeometry x="882" y="480" width="25" height="26" as="geometry" />
        </mxCell>
        <mxCell id="puMFfP5qI0AETWPIXDAu-126" value="1" style="text;html=1;align=center;verticalAlign=middle;resizable=0;points=[];autosize=1;strokeColor=none;fillColor=none;" vertex="1" parent="WIyWlLk6GJQsqaUBKTNV-1">
          <mxGeometry x="891" y="263" width="25" height="26" as="geometry" />
        </mxCell>
        <mxCell id="puMFfP5qI0AETWPIXDAu-127" value="1*" style="text;html=1;align=center;verticalAlign=middle;resizable=0;points=[];autosize=1;strokeColor=none;fillColor=none;" vertex="1" parent="WIyWlLk6GJQsqaUBKTNV-1">
          <mxGeometry x="895" y="301" width="29" height="26" as="geometry" />
        </mxCell>
        <mxCell id="puMFfP5qI0AETWPIXDAu-128" value="1" style="text;html=1;align=center;verticalAlign=middle;resizable=0;points=[];autosize=1;strokeColor=none;fillColor=none;" vertex="1" parent="WIyWlLk6GJQsqaUBKTNV-1">
          <mxGeometry x="689" y="591" width="25" height="26" as="geometry" />
        </mxCell>
        <mxCell id="puMFfP5qI0AETWPIXDAu-129" value="1" style="text;html=1;align=center;verticalAlign=middle;resizable=0;points=[];autosize=1;strokeColor=none;fillColor=none;" vertex="1" parent="WIyWlLk6GJQsqaUBKTNV-1">
          <mxGeometry x="742" y="591" width="25" height="26" as="geometry" />
        </mxCell>
        <mxCell id="puMFfP5qI0AETWPIXDAu-130" value="1" style="text;html=1;align=center;verticalAlign=middle;resizable=0;points=[];autosize=1;strokeColor=none;fillColor=none;" vertex="1" parent="WIyWlLk6GJQsqaUBKTNV-1">
          <mxGeometry x="794" y="591" width="25" height="26" as="geometry" />
        </mxCell>
        <mxCell id="puMFfP5qI0AETWPIXDAu-132" value="1" style="text;html=1;align=center;verticalAlign=middle;resizable=0;points=[];autosize=1;strokeColor=none;fillColor=none;" vertex="1" parent="WIyWlLk6GJQsqaUBKTNV-1">
          <mxGeometry x="781" y="1222" width="25" height="26" as="geometry" />
        </mxCell>
        <mxCell id="puMFfP5qI0AETWPIXDAu-137" value="1*" style="text;html=1;align=center;verticalAlign=middle;resizable=0;points=[];autosize=1;strokeColor=none;fillColor=none;" vertex="1" parent="WIyWlLk6GJQsqaUBKTNV-1">
          <mxGeometry x="774" y="1173" width="29" height="26" as="geometry" />
        </mxCell>
        <mxCell id="puMFfP5qI0AETWPIXDAu-138" value="1*" style="text;html=1;align=center;verticalAlign=middle;resizable=0;points=[];autosize=1;strokeColor=none;fillColor=none;" vertex="1" parent="WIyWlLk6GJQsqaUBKTNV-1">
          <mxGeometry x="697" y="1116" width="29" height="26" as="geometry" />
        </mxCell>
        <mxCell id="puMFfP5qI0AETWPIXDAu-139" value="" style="group" vertex="1" connectable="0" parent="WIyWlLk6GJQsqaUBKTNV-1">
          <mxGeometry x="400" y="888" width="233" height="376" as="geometry" />
        </mxCell>
        <mxCell id="zkfFHV4jXpPFQw0GAbJ--0" value="Patient" style="swimlane;fontStyle=2;align=center;verticalAlign=top;childLayout=stackLayout;horizontal=1;startSize=26;horizontalStack=0;resizeParent=1;resizeLast=0;collapsible=1;marginBottom=0;rounded=0;shadow=0;strokeWidth=1;" parent="puMFfP5qI0AETWPIXDAu-139" vertex="1">
          <mxGeometry x="43" y="22" width="190" height="354" as="geometry">
            <mxRectangle x="30" y="30" width="160" height="26" as="alternateBounds" />
          </mxGeometry>
        </mxCell>
        <mxCell id="zkfFHV4jXpPFQw0GAbJ--1" value="+ name: String" style="text;align=left;verticalAlign=top;spacingLeft=4;spacingRight=4;overflow=hidden;rotatable=0;points=[[0,0.5],[1,0.5]];portConstraint=eastwest;" parent="zkfFHV4jXpPFQw0GAbJ--0" vertex="1">
          <mxGeometry y="26" width="190" height="26" as="geometry" />
        </mxCell>
        <mxCell id="zkfFHV4jXpPFQw0GAbJ--2" value="# phoneNumber: String" style="text;align=left;verticalAlign=top;spacingLeft=4;spacingRight=4;overflow=hidden;rotatable=0;points=[[0,0.5],[1,0.5]];portConstraint=eastwest;rounded=0;shadow=0;html=0;" parent="zkfFHV4jXpPFQw0GAbJ--0" vertex="1">
          <mxGeometry y="52" width="190" height="26" as="geometry" />
        </mxCell>
        <mxCell id="zkfFHV4jXpPFQw0GAbJ--3" value="# emailAddress: String" style="text;align=left;verticalAlign=top;spacingLeft=4;spacingRight=4;overflow=hidden;rotatable=0;points=[[0,0.5],[1,0.5]];portConstraint=eastwest;rounded=0;shadow=0;html=0;" parent="zkfFHV4jXpPFQw0GAbJ--0" vertex="1">
          <mxGeometry y="78" width="190" height="26" as="geometry" />
        </mxCell>
        <mxCell id="yhLwDngZFzW4GkKBRwZi-11" value="# birthDate: Date" style="text;align=left;verticalAlign=top;spacingLeft=4;spacingRight=4;overflow=hidden;rotatable=0;points=[[0,0.5],[1,0.5]];portConstraint=eastwest;" parent="zkfFHV4jXpPFQw0GAbJ--0" vertex="1">
          <mxGeometry y="104" width="190" height="26" as="geometry" />
        </mxCell>
        <mxCell id="zkfFHV4jXpPFQw0GAbJ--5" value="- personalHealthNumber: Int" style="text;align=left;verticalAlign=top;spacingLeft=4;spacingRight=4;overflow=hidden;rotatable=0;points=[[0,0.5],[1,0.5]];portConstraint=eastwest;" parent="zkfFHV4jXpPFQw0GAbJ--0" vertex="1">
          <mxGeometry y="130" width="190" height="26" as="geometry" />
        </mxCell>
        <mxCell id="zkfFHV4jXpPFQw0GAbJ--4" value="" style="line;html=1;strokeWidth=1;align=left;verticalAlign=middle;spacingTop=-1;spacingLeft=3;spacingRight=3;rotatable=0;labelPosition=right;points=[];portConstraint=eastwest;" parent="zkfFHV4jXpPFQw0GAbJ--0" vertex="1">
          <mxGeometry y="156" width="190" height="16" as="geometry" />
        </mxCell>
        <mxCell id="yhLwDngZFzW4GkKBRwZi-13" value="callNurseHotline()" style="text;align=left;verticalAlign=top;spacingLeft=4;spacingRight=4;overflow=hidden;rotatable=0;points=[[0,0.5],[1,0.5]];portConstraint=eastwest;" parent="zkfFHV4jXpPFQw0GAbJ--0" vertex="1">
          <mxGeometry y="172" width="190" height="26" as="geometry" />
        </mxCell>
        <mxCell id="yhLwDngZFzW4GkKBRwZi-14" value="provideCallSummary()&#xa;" style="text;align=left;verticalAlign=top;spacingLeft=4;spacingRight=4;overflow=hidden;rotatable=0;points=[[0,0.5],[1,0.5]];portConstraint=eastwest;" parent="zkfFHV4jXpPFQw0GAbJ--0" vertex="1">
          <mxGeometry y="198" width="190" height="26" as="geometry" />
        </mxCell>
        <mxCell id="yhLwDngZFzW4GkKBRwZi-16" value="viewNearbyHospitals()&#xa;" style="text;align=left;verticalAlign=top;spacingLeft=4;spacingRight=4;overflow=hidden;rotatable=0;points=[[0,0.5],[1,0.5]];portConstraint=eastwest;" parent="zkfFHV4jXpPFQw0GAbJ--0" vertex="1">
          <mxGeometry y="224" width="190" height="26" as="geometry" />
        </mxCell>
        <mxCell id="yhLwDngZFzW4GkKBRwZi-63" value="registerForVirtualTriage()&#xa;" style="text;align=left;verticalAlign=top;spacingLeft=4;spacingRight=4;overflow=hidden;rotatable=0;points=[[0,0.5],[1,0.5]];portConstraint=eastwest;" parent="zkfFHV4jXpPFQw0GAbJ--0" vertex="1">
          <mxGeometry y="250" width="190" height="26" as="geometry" />
        </mxCell>
        <mxCell id="yhLwDngZFzW4GkKBRwZi-61" value="join&amp;ViewWaitlist()&#xa;" style="text;align=left;verticalAlign=top;spacingLeft=4;spacingRight=4;overflow=hidden;rotatable=0;points=[[0,0.5],[1,0.5]];portConstraint=eastwest;" parent="zkfFHV4jXpPFQw0GAbJ--0" vertex="1">
          <mxGeometry y="276" width="190" height="26" as="geometry" />
        </mxCell>
        <mxCell id="yhLwDngZFzW4GkKBRwZi-65" value="leaveWaitlist()&#xa;" style="text;align=left;verticalAlign=top;spacingLeft=4;spacingRight=4;overflow=hidden;rotatable=0;points=[[0,0.5],[1,0.5]];portConstraint=eastwest;" parent="zkfFHV4jXpPFQw0GAbJ--0" vertex="1">
          <mxGeometry y="302" width="190" height="26" as="geometry" />
        </mxCell>
        <mxCell id="puMFfP5qI0AETWPIXDAu-55" value="..." style="text;align=left;verticalAlign=top;spacingLeft=4;spacingRight=4;overflow=hidden;rotatable=0;points=[[0,0.5],[1,0.5]];portConstraint=eastwest;" vertex="1" parent="zkfFHV4jXpPFQw0GAbJ--0">
          <mxGeometry y="328" width="190" height="26" as="geometry" />
        </mxCell>
        <mxCell id="yhLwDngZFzW4GkKBRwZi-77" value="1*" style="text;strokeColor=none;align=center;fillColor=none;html=1;verticalAlign=middle;whiteSpace=wrap;rounded=0;" parent="puMFfP5qI0AETWPIXDAu-139" vertex="1">
          <mxGeometry y="289" width="60" height="30" as="geometry" />
        </mxCell>
        <mxCell id="yhLwDngZFzW4GkKBRwZi-85" value="1*" style="text;strokeColor=none;align=center;fillColor=none;html=1;verticalAlign=middle;whiteSpace=wrap;rounded=0;" parent="puMFfP5qI0AETWPIXDAu-139" vertex="1">
          <mxGeometry x="71" width="60" height="30" as="geometry" />
        </mxCell>
        <mxCell id="yhLwDngZFzW4GkKBRwZi-99" value="1*" style="text;strokeColor=none;align=center;fillColor=none;html=1;verticalAlign=middle;whiteSpace=wrap;rounded=0;" parent="puMFfP5qI0AETWPIXDAu-139" vertex="1">
          <mxGeometry x="3" y="91" width="60" height="30" as="geometry" />
        </mxCell>
        <mxCell id="puMFfP5qI0AETWPIXDAu-140" value="1" style="text;html=1;align=center;verticalAlign=middle;resizable=0;points=[];autosize=1;strokeColor=none;fillColor=none;" vertex="1" parent="WIyWlLk6GJQsqaUBKTNV-1">
          <mxGeometry x="608" y="1361" width="25" height="26" as="geometry" />
        </mxCell>
        <mxCell id="puMFfP5qI0AETWPIXDAu-141" value="1*" style="text;html=1;align=center;verticalAlign=middle;resizable=0;points=[];autosize=1;strokeColor=none;fillColor=none;" vertex="1" parent="WIyWlLk6GJQsqaUBKTNV-1">
          <mxGeometry x="624" y="1177" width="29" height="26" as="geometry" />
        </mxCell>
        <mxCell id="puMFfP5qI0AETWPIXDAu-142" value="1*" style="text;html=1;align=center;verticalAlign=middle;resizable=0;points=[];autosize=1;strokeColor=none;fillColor=none;" vertex="1" parent="WIyWlLk6GJQsqaUBKTNV-1">
          <mxGeometry x="514" y="1257" width="29" height="26" as="geometry" />
        </mxCell>
        <mxCell id="puMFfP5qI0AETWPIXDAu-145" value="1" style="text;html=1;align=center;verticalAlign=middle;resizable=0;points=[];autosize=1;strokeColor=none;fillColor=none;" vertex="1" parent="WIyWlLk6GJQsqaUBKTNV-1">
          <mxGeometry x="410" y="1289" width="25" height="26" as="geometry" />
        </mxCell>
        <mxCell id="puMFfP5qI0AETWPIXDAu-148" value="1" style="text;html=1;align=center;verticalAlign=middle;resizable=0;points=[];autosize=1;strokeColor=none;fillColor=none;" vertex="1" parent="WIyWlLk6GJQsqaUBKTNV-1">
          <mxGeometry x="377" y="1329" width="25" height="26" as="geometry" />
        </mxCell>
        <mxCell id="puMFfP5qI0AETWPIXDAu-149" value="1" style="text;html=1;align=center;verticalAlign=middle;resizable=0;points=[];autosize=1;strokeColor=none;fillColor=none;" vertex="1" parent="WIyWlLk6GJQsqaUBKTNV-1">
          <mxGeometry x="377.5" y="1369" width="25" height="26" as="geometry" />
        </mxCell>
        <mxCell id="puMFfP5qI0AETWPIXDAu-151" value="1*" style="text;html=1;align=center;verticalAlign=middle;resizable=0;points=[];autosize=1;strokeColor=none;fillColor=none;" vertex="1" parent="WIyWlLk6GJQsqaUBKTNV-1">
          <mxGeometry x="318" y="923" width="29" height="26" as="geometry" />
        </mxCell>
        <mxCell id="puMFfP5qI0AETWPIXDAu-152" value="1" style="text;html=1;align=center;verticalAlign=middle;resizable=0;points=[];autosize=1;strokeColor=none;fillColor=none;" vertex="1" parent="WIyWlLk6GJQsqaUBKTNV-1">
          <mxGeometry x="658" y="1410" width="25" height="26" as="geometry" />
        </mxCell>
      </root>
    </mxGraphModel>
  </diagram>
</mxfile>
